<?xml version="1.0" encoding="UTF-8"?>
<svg enable-background="new 0 0 512 512" version="1.1" viewBox="0 0 512 512" xml:space="preserve" xmlns="http://www.w3.org/2000/svg">
<path d="m267.64 0c-12.853 0-23.273 10.42-23.273 23.273v93.091c0 12.853 10.42 23.273 23.273 23.273s23.273-10.42 23.273-23.273v-93.091c0-12.853-10.42-23.273-23.273-23.273z" fill="#2D50A7"/>
<path d="m267.64 372.36c-12.853 0-23.273 10.42-23.273 23.273v93.091c0 12.853 10.42 23.273 23.273 23.273s23.273-10.42 23.273-23.273v-93.091c0-12.853-10.42-23.273-23.273-23.273z" fill="#73A1FB"/>
<path d="m185.36 140.81-65.826-65.828c-9.086-9.089-23.822-9.089-32.912 0-9.089 9.089-9.089 23.824 0 32.912l65.826 65.828c4.544 4.544 10.501 6.817 16.455 6.817 5.955 0 11.913-2.273 16.455-6.817 9.091-9.089 9.091-23.823 2e-3 -32.912z" fill="#355EC9"/>
<g fill="#C4D9FD">
	<path d="m477.09 232.73h-46.545c-12.853 0-23.273 10.42-23.273 23.273s10.42 23.273 23.273 23.273h46.545c12.853 0 23.273-10.42 23.273-23.273s-10.42-23.273-23.273-23.273z"/>
	<path d="m382.83 338.28c-9.087-9.089-23.823-9.087-32.912 0-9.089 9.089-9.087 23.823 0 32.912l65.828 65.825c4.544 4.544 10.501 6.816 16.457 6.816s11.913-2.273 16.455-6.816c9.089-9.089 9.089-23.824 0-32.912l-65.828-65.825z"/>
</g>
<path d="m151.27 256c0-12.853-10.42-23.273-23.273-23.273h-93.091c-12.853 0-23.273 10.42-23.273 23.273s10.42 23.273 23.273 23.273h93.091c12.853 0 23.273-10.42 23.273-23.273z" fill="#3D6DEB"/>
<path d="m185.36 338.28c-9.087-9.089-23.824-9.089-32.912 0l-65.825 65.825c-9.089 9.087-9.089 23.824 0 32.912 4.544 4.544 10.501 6.816 16.457 6.816s11.913-2.271 16.455-6.816l65.825-65.825c9.089-9.087 9.089-23.823 0-32.912z" fill="#5286FA"/>















</svg>
