<svg xmlns="http://www.w3.org/2000/svg" xmlns:xlink="http://www.w3.org/1999/xlink" width="24" height="24" version="1.1" style=""><rect id="backgroundrect" width="100%" height="100%" x="0" y="0" fill="none" stroke="none"/>

<g class="currentLayer" style=""><title>Layer 1</title><g id="surface1" class="" fill="#ffffff" fill-opacity="1">
<path style="stroke: none; fill-rule: evenodd;" d="M 12 4.800781 C 8.015625 4.800781 4.800781 8.015625 4.800781 12 C 4.800781 15.167969 6.863281 17.855469 9.742188 18.816406 C 10.128906 18.863281 10.222656 18.671875 10.222656 18.480469 L 10.222656 17.230469 C 8.207031 17.664062 7.777344 16.273438 7.777344 16.273438 C 7.441406 15.457031 6.960938 15.214844 6.960938 15.214844 C 6.289062 14.785156 7.007812 14.785156 7.007812 14.785156 C 7.726562 14.832031 8.113281 15.503906 8.113281 15.503906 C 8.734375 16.609375 9.792969 16.273438 10.222656 16.078125 C 10.273438 15.601562 10.464844 15.3125 10.703125 15.121094 C 9.121094 14.929688 7.441406 14.304688 7.441406 11.566406 C 7.441406 10.800781 7.726562 10.128906 8.160156 9.648438 C 8.0625 9.457031 7.824219 8.734375 8.207031 7.726562 C 8.207031 7.726562 8.832031 7.535156 10.175781 8.449219 C 10.753906 8.304688 11.375 8.207031 12 8.207031 C 12.625 8.207031 13.246094 8.304688 13.824219 8.449219 C 15.214844 7.535156 15.792969 7.726562 15.792969 7.726562 C 16.175781 8.734375 15.9375 9.457031 15.839844 9.648438 C 16.320312 10.128906 16.558594 10.800781 16.558594 11.566406 C 16.558594 14.351562 14.878906 14.929688 13.296875 15.121094 C 13.535156 15.359375 13.777344 15.792969 13.777344 16.464844 L 13.777344 18.433594 C 13.777344 18.625 13.921875 18.863281 14.257812 18.769531 C 17.136719 17.808594 19.152344 15.121094 19.152344 11.953125 C 19.199219 8.015625 15.984375 4.800781 12 4.800781 Z M 12 4.800781 " id="svg_1" fill="#ffffff" fill-opacity="1"/>
</g></g></svg>