<?xml version="1.0" encoding="UTF-8" standalone="no"?>
<!DOCTYPE svg PUBLIC "-//W3C//DTD SVG 1.1//EN" "http://www.w3.org/Graphics/SVG/1.1/DTD/svg11.dtd">
<svg version="1.1" xmlns="http://www.w3.org/2000/svg" xmlns:xlink="http://www.w3.org/1999/xlink" preserveAspectRatio="xMidYMid meet" viewBox="0 0 640 640" width="320" height="320"><defs><path d="M269.64 515.12C269.64 578.71 269.64 614.04 269.64 621.11C269.64 638.84 284.02 653.23 301.76 653.23C319.5 653.23 333.88 638.84 333.88 621.11C333.88 614.04 333.88 578.71 333.88 515.12L269.64 515.12Z" id="e7axVDEaG1"></path><path d="M347.75 515.12C347.75 578.71 347.75 614.04 347.75 621.11C347.75 638.84 362.13 653.23 379.87 653.23C397.61 653.23 411.99 638.84 411.99 621.11C411.99 614.04 411.99 578.71 411.99 515.12L347.75 515.12Z" id="b1YQs3RNTP"></path><path d="M152.58 269.2C146.73 278.6 147.28 290.64 153.96 299.47C188.7 345.43 193.08 351.26 193.88 352.25C193.88 352.25 192.41 319.47 192.48 205.04C184.5 217.88 156.57 262.78 152.58 269.2Z" id="bgADfEP7k"></path><path d="M477.46 61.54C472.05 47.78 456.52 41.01 442.76 46.42C429 51.82 422.23 67.36 427.64 81.12C430.05 87.25 449.32 136.29 451.73 142.42C432.2 131.39 421.47 128.63 412.8 128.63C334.66 128.63 333.77 128.63 268.83 128.63C244.03 128.63 222.48 143.02 212.08 163.88C220.76 159.98 217.82 160.99 314.67 160.99C328.84 160.99 442.24 160.99 456.41 160.99C474.67 160.99 489.52 175.84 489.52 194.09C489.52 197.95 489.52 228.82 489.52 232.68C492.59 235.02 498.37 240.18 508.38 240.18C514.04 240.18 519.71 238.39 524.47 234.8C534.08 227.57 537.69 214.82 533.29 203.62C522.13 175.2 483.04 75.75 477.46 61.54Z" id="ja7NAMD9"></path><path d="M515.02 417.07C514.34 417.07 513.95 417.07 513.88 417.07C511.64 416.66 467.22 416.44 467.22 416.44C467.22 412.19 467.22 378.26 467.22 374.01C463.83 375.19 460.2 375.84 456.41 375.84C454.66 375.84 440.66 375.84 438.91 375.84C445.15 383.12 448.93 392.56 448.93 402.88C448.93 407.63 448.12 412.19 446.65 416.44C446.57 416.64 446.51 416.86 446.43 417.07C443.84 417.07 423.06 417.07 420.46 417.07C424.28 413.54 426.69 408.5 426.69 402.88C426.69 392.2 418.03 383.54 407.36 383.54C404.87 383.54 392.42 383.54 370 383.54L370 353.6C421.85 353.6 450.65 353.6 456.41 353.6C462.41 353.6 467.28 348.73 467.28 342.73C467.28 327.87 467.28 208.96 467.28 194.09C467.28 188.09 462.41 183.22 456.41 183.22C433.33 183.22 248.67 183.22 225.59 183.22C219.59 183.22 214.72 188.09 214.72 194.09C214.72 208.96 214.72 327.87 214.72 342.73C214.72 348.73 219.58 353.6 225.59 353.6C231.35 353.6 260.15 353.6 312 353.6L312 383.55C289.58 383.55 277.13 383.55 274.64 383.55C263.97 383.55 255.31 392.21 255.31 402.88C255.31 408.5 257.72 413.54 261.54 417.07C258.94 417.07 238.16 417.07 235.57 417.07C235.49 416.86 235.42 416.65 235.35 416.44C233.88 412.19 233.07 407.63 233.07 402.88C233.07 392.56 236.85 383.12 243.09 375.84C241.34 375.84 227.34 375.84 225.59 375.84C221.44 375.84 217.48 375.07 213.82 373.67C213.82 377.95 213.82 412.16 213.82 416.44C213.82 416.44 170.36 416.67 168.12 417.07C168.08 417.07 167.89 417.07 167.53 417.07C167.53 417.14 167.53 417.17 167.53 417.18C149.9 420.68 136.56 436.27 136.56 454.91C136.56 475.69 136.56 641.89 136.56 662.66C136.56 673.34 145.22 682 155.9 682C166.58 682 175.23 673.34 175.23 662.66C175.23 651.3 175.23 594.48 175.23 492.19L506.77 492.19C506.77 594.48 506.77 651.3 506.77 662.66C506.77 673.34 515.42 682 526.1 682C536.78 682 545.44 673.34 545.44 662.66C545.44 641.89 545.44 475.69 545.44 454.91C545.44 436.46 532.38 421.01 515.02 417.29C515.02 417.26 515.02 417.19 515.02 417.07ZM309.57 271.91C309.57 254.55 323.64 240.48 341 240.48C358.36 240.48 372.43 254.55 372.43 271.91C372.43 289.27 358.36 303.34 341 303.34C323.64 303.34 309.57 289.27 309.57 271.91Z" id="dglFGAVnY"></path><path d="M340.81 110.94C310.17 110.94 285.34 86.11 285.34 55.47C285.34 24.84 310.17 0 340.81 0C371.44 0 396.28 24.84 396.28 55.47C396.28 86.11 371.44 110.94 340.81 110.94Z" id="c5Y81F6Jhe"></path></defs><g><g><g><use xlink:href="#e7axVDEaG1" opacity="1" fill="#ffffff" fill-opacity="1"></use><g><use xlink:href="#e7axVDEaG1" opacity="1" fill-opacity="0" stroke="#000000" stroke-width="1" stroke-opacity="0"></use></g></g><g><use xlink:href="#b1YQs3RNTP" opacity="1" fill="#ffffff" fill-opacity="1"></use><g><use xlink:href="#b1YQs3RNTP" opacity="1" fill-opacity="0" stroke="#000000" stroke-width="1" stroke-opacity="0"></use></g></g><g><use xlink:href="#bgADfEP7k" opacity="1" fill="#ffffff" fill-opacity="1"></use><g><use xlink:href="#bgADfEP7k" opacity="1" fill-opacity="0" stroke="#000000" stroke-width="1" stroke-opacity="0"></use></g></g><g><use xlink:href="#ja7NAMD9" opacity="1" fill="#ffffff" fill-opacity="1"></use><g><use xlink:href="#ja7NAMD9" opacity="1" fill-opacity="0" stroke="#000000" stroke-width="1" stroke-opacity="0"></use></g></g><g><use xlink:href="#dglFGAVnY" opacity="1" fill="#ffffff" fill-opacity="1"></use><g><use xlink:href="#dglFGAVnY" opacity="1" fill-opacity="0" stroke="#000000" stroke-width="1" stroke-opacity="0"></use></g></g><g><use xlink:href="#c5Y81F6Jhe" opacity="1" fill="#ffffff" fill-opacity="1"></use><g><use xlink:href="#c5Y81F6Jhe" opacity="1" fill-opacity="0" stroke="#000000" stroke-width="1" stroke-opacity="0"></use></g></g></g></g></svg>