<?xml version="1.0" encoding="UTF-8"?>
<svg xmlns="http://www.w3.org/2000/svg" xmlns:xlink="http://www.w3.org/1999/xlink" width="512pt" height="512pt" viewBox="0 0 512 512" version="1.1">
<g id="surface1">
<path style=" stroke:none;fill-rule:nonzero;fill:rgb(0%,0%,0%);fill-opacity:1;" d="M 202.429688 386.71875 L 202.429688 466.285156 C 202.429688 479.601562 213.226562 490.398438 226.542969 490.398438 C 239.859375 490.398438 250.65625 479.601562 250.65625 466.285156 L 250.65625 386.71875 Z M 202.429688 386.71875 "/>
<path style=" stroke:none;fill-rule:nonzero;fill:rgb(0%,0%,0%);fill-opacity:1;" d="M 261.066406 386.71875 L 261.066406 466.285156 C 261.066406 479.601562 271.863281 490.398438 285.179688 490.398438 C 298.496094 490.398438 309.292969 479.601562 309.292969 466.285156 L 309.292969 386.71875 Z M 261.066406 386.71875 "/>
<path style=" stroke:none;fill-rule:nonzero;fill:rgb(0%,0%,0%);fill-opacity:1;" d="M 144.503906 153.933594 L 114.546875 202.097656 C 110.15625 209.15625 110.566406 218.191406 115.582031 224.824219 C 141.660156 259.328125 144.953125 263.699219 145.554688 264.449219 C 145.554688 264.449219 144.449219 239.839844 144.503906 153.933594 Z M 144.503906 153.933594 "/>
<path style=" stroke:none;fill-rule:nonzero;fill:rgb(0%,0%,0%);fill-opacity:1;" d="M 400.359375 152.863281 L 358.445312 46.199219 C 354.386719 35.871094 342.726562 30.785156 332.394531 34.851562 C 322.066406 38.90625 316.980469 50.570312 321.042969 60.902344 L 339.125 106.921875 C 324.46875 98.640625 316.414062 96.566406 309.902344 96.566406 C 251.238281 96.566406 250.574219 96.566406 201.816406 96.566406 C 183.203125 96.566406 167.019531 107.367188 159.21875 123.027344 C 165.730469 120.105469 163.527344 120.859375 236.230469 120.859375 L 342.644531 120.859375 C 356.347656 120.859375 367.496094 132.007812 367.496094 145.710938 L 367.496094 174.683594 C 369.800781 176.4375 374.140625 180.308594 381.65625 180.308594 C 385.90625 180.308594 390.160156 178.964844 393.738281 176.273438 C 400.953125 170.84375 403.664062 161.269531 400.359375 152.863281 Z M 400.359375 152.863281 "/>
<path style=" stroke:none;fill-rule:nonzero;fill:rgb(0%,0%,0%);fill-opacity:1;" d="M 386.644531 313.273438 L 386.644531 313.109375 L 385.785156 313.109375 C 384.101562 312.800781 350.757812 312.632812 350.757812 312.632812 L 350.757812 280.785156 C 348.214844 281.667969 345.484375 282.152344 342.644531 282.152344 L 329.503906 282.152344 C 334.191406 287.617188 337.027344 294.710938 337.027344 302.457031 C 337.027344 306.019531 336.417969 309.441406 335.3125 312.632812 C 335.257812 312.789062 335.210938 312.953125 335.152344 313.109375 L 315.652344 313.109375 C 318.523438 310.457031 320.332031 306.671875 320.332031 302.453125 C 320.332031 294.4375 313.832031 287.9375 305.816406 287.9375 L 277.773438 287.9375 L 277.773438 265.457031 L 342.644531 265.457031 C 347.148438 265.457031 350.804688 261.804688 350.804688 257.300781 L 350.804688 145.710938 C 350.804688 141.203125 347.148438 137.550781 342.644531 137.550781 L 169.355469 137.550781 C 164.851562 137.550781 161.195312 141.203125 161.195312 145.710938 L 161.195312 257.300781 C 161.195312 261.804688 164.847656 265.460938 169.355469 265.460938 L 234.226562 265.460938 L 234.226562 287.941406 L 206.183594 287.941406 C 198.167969 287.941406 191.667969 294.441406 191.667969 302.457031 C 191.667969 306.671875 193.476562 310.457031 196.347656 313.109375 L 176.847656 313.109375 C 176.789062 312.953125 176.738281 312.792969 176.6875 312.632812 C 175.582031 309.441406 174.972656 306.019531 174.972656 302.457031 C 174.972656 294.710938 177.808594 287.617188 182.496094 282.15625 L 169.355469 282.15625 C 166.246094 282.15625 163.269531 281.574219 160.523438 280.527344 L 160.523438 312.636719 C 160.523438 312.636719 127.898438 312.804688 126.214844 313.109375 L 125.773438 313.109375 L 125.773438 313.191406 C 112.535156 315.816406 102.523438 327.519531 102.523438 341.515625 L 102.523438 497.484375 C 102.523438 505.5 109.023438 512 117.039062 512 C 125.058594 512 131.554688 505.5 131.554688 497.484375 L 131.554688 369.503906 L 380.445312 369.503906 L 380.445312 497.484375 C 380.445312 505.5 386.945312 512 394.960938 512 C 402.976562 512 409.476562 505.5 409.476562 497.484375 L 409.476562 341.515625 C 409.476562 327.664062 399.671875 316.0625 386.644531 313.273438 Z M 256 227.730469 C 242.96875 227.730469 232.402344 217.164062 232.402344 204.132812 C 232.402344 191.101562 242.96875 180.535156 256 180.535156 C 269.03125 180.535156 279.597656 191.101562 279.597656 204.132812 C 279.597656 217.164062 269.03125 227.730469 256 227.730469 Z M 256 227.730469 "/>
<path style=" stroke:none;fill-rule:nonzero;fill:rgb(0%,0%,0%);fill-opacity:1;" d="M 297.5 41.644531 C 297.5 64.644531 278.855469 83.289062 255.855469 83.289062 C 232.855469 83.289062 214.210938 64.644531 214.210938 41.644531 C 214.210938 18.644531 232.855469 0 255.855469 0 C 278.855469 0 297.5 18.644531 297.5 41.644531 Z M 297.5 41.644531 "/>
</g>
</svg>
