<svg xmlns="http://www.w3.org/2000/svg" width="640" height="640" viewBox="0 0 480 480"><path d="M189.777 362.547v74.598c0 12.484 10.121 22.605 22.61 22.605 12.484 0 22.605-10.121 22.605-22.605v-74.598zm0 0M244.75 362.547v74.598c0 12.484 10.121 22.605 22.605 22.605 12.489 0 22.61-10.121 22.61-22.605v-74.598zm0 0M135.469 144.313l-28.078 45.152a18.833 18.833 0 0 0 .968 21.308c24.446 32.348 27.532 36.446 28.098 37.149 0 0-1.035-23.074-.988-103.61zm0 0M375.336 143.313l-39.293-100c-3.805-9.684-14.738-14.45-24.422-10.641-9.683 3.805-14.45 14.738-10.644 24.422l16.953 43.144c-13.739-7.765-21.29-9.707-27.395-9.707H189.203c-17.45 0-32.621 10.125-39.933 24.809 6.101-2.738 4.035-2.035 72.195-2.035h99.765c12.848 0 23.297 10.453 23.297 23.3v27.16c2.16 1.645 6.23 5.274 13.278 5.274 3.984 0 7.968-1.258 11.324-3.785a18.83 18.83 0 0 0 6.207-21.941zm0 0"/><path d="M362.477 293.695v-.156h-.801c-1.582-.289-32.84-.445-32.84-.445v-29.856a23.142 23.142 0 0 1-7.606 1.282h-12.32a29.137 29.137 0 0 1 7.05 19.03c0 3.345-.565 6.552-1.605 9.544-.05.148-.097.297-.148.445h-18.285c2.695-2.484 4.39-6.031 4.39-9.988 0-7.516-6.093-13.61-13.609-13.61h-26.289v-21.074h60.816a7.65 7.65 0 0 0 7.649-7.648V136.602a7.65 7.65 0 0 0-7.649-7.649H158.77a7.65 7.65 0 0 0-7.649 7.649v104.617a7.65 7.65 0 0 0 7.649 7.648h60.816v21.078h-26.29c-7.515 0-13.608 6.094-13.608 13.606 0 3.957 1.695 7.504 4.39 9.988h-18.285c-.055-.144-.098-.297-.148-.445a29.117 29.117 0 0 1-1.606-9.54 29.14 29.14 0 0 1 7.05-19.034h-12.32c-2.914 0-5.703-.543-8.277-1.524v30.098s-30.586.16-32.168.449h-.41v.074c-12.414 2.461-21.797 13.43-21.797 26.555V466.39c0 7.515 6.094 13.609 13.61 13.609 7.515 0 13.605-6.094 13.605-13.61V346.407h233.336v119.985c0 7.515 6.094 13.609 13.61 13.609 7.515 0 13.605-6.094 13.605-13.61V320.169c0-12.984-9.192-23.86-21.406-26.473zM240 213.496c-12.219 0-22.125-9.902-22.125-22.121S227.781 169.25 240 169.25c12.215 0 22.121 9.906 22.121 22.125s-9.906 22.121-22.121 22.121zm0 0M278.906 39.043c0 21.562-17.48 39.043-39.043 39.043-21.562 0-39.043-17.48-39.043-39.043S218.3 0 239.863 0s39.043 17.48 39.043 39.043zm0 0"/></svg>