<?xml version="1.0" encoding="UTF-8"?>
<svg xmlns="http://www.w3.org/2000/svg" xmlns:xlink="http://www.w3.org/1999/xlink" width="480pt" height="480pt" viewBox="0 0 480 480" version="1.1">
<g id="surface1">
<path style=" stroke:none;fill-rule:nonzero;fill:rgb(0%,0%,0%);fill-opacity:1;" d="M 189.777344 362.546875 L 189.777344 437.144531 C 189.777344 449.628906 199.898438 459.75 212.386719 459.75 C 224.871094 459.75 234.992188 449.628906 234.992188 437.144531 L 234.992188 362.546875 Z M 189.777344 362.546875 "/>
<path style=" stroke:none;fill-rule:nonzero;fill:rgb(0%,0%,0%);fill-opacity:1;" d="M 244.75 362.546875 L 244.75 437.144531 C 244.75 449.628906 254.871094 459.75 267.355469 459.75 C 279.84375 459.75 289.964844 449.628906 289.964844 437.144531 L 289.964844 362.546875 Z M 244.75 362.546875 "/>
<path style=" stroke:none;fill-rule:nonzero;fill:rgb(0%,0%,0%);fill-opacity:1;" d="M 135.46875 144.3125 L 107.390625 189.464844 C 103.273438 196.085938 103.65625 204.554688 108.359375 210.773438 C 132.804688 243.121094 135.890625 247.21875 136.457031 247.921875 C 136.457031 247.921875 135.421875 224.847656 135.46875 144.3125 Z M 135.46875 144.3125 "/>
<path style=" stroke:none;fill-rule:nonzero;fill:rgb(0%,0%,0%);fill-opacity:1;" d="M 375.335938 143.3125 L 336.042969 43.3125 C 332.238281 33.628906 321.304688 28.863281 311.621094 32.671875 C 301.9375 36.476562 297.171875 47.410156 300.976562 57.09375 L 317.929688 100.238281 C 304.191406 92.472656 296.640625 90.53125 290.535156 90.53125 C 235.535156 90.53125 234.914062 90.53125 189.203125 90.53125 C 171.753906 90.53125 156.582031 100.65625 149.269531 115.339844 C 155.371094 112.601562 153.304688 113.304688 221.464844 113.304688 L 321.230469 113.304688 C 334.078125 113.304688 344.527344 123.757812 344.527344 136.605469 L 344.527344 163.765625 C 346.6875 165.410156 350.757812 169.039062 357.804688 169.039062 C 361.789062 169.039062 365.773438 167.78125 369.128906 165.253906 C 375.894531 160.164062 378.433594 151.191406 375.335938 143.3125 Z M 375.335938 143.3125 "/>
<path style=" stroke:none;fill-rule:nonzero;fill:rgb(0%,0%,0%);fill-opacity:1;" d="M 362.476562 293.695312 L 362.476562 293.539062 L 361.675781 293.539062 C 360.09375 293.25 328.835938 293.09375 328.835938 293.09375 L 328.835938 263.238281 C 326.449219 264.066406 323.894531 264.519531 321.230469 264.519531 L 308.910156 264.519531 C 313.304688 269.640625 315.960938 276.292969 315.960938 283.550781 C 315.960938 286.894531 315.394531 290.101562 314.355469 293.09375 C 314.304688 293.242188 314.257812 293.390625 314.207031 293.539062 L 295.921875 293.539062 C 298.617188 291.054688 300.3125 287.507812 300.3125 283.550781 C 300.3125 276.035156 294.21875 269.941406 286.703125 269.941406 L 260.414062 269.941406 L 260.414062 248.867188 L 321.230469 248.867188 C 325.453125 248.867188 328.878906 245.441406 328.878906 241.21875 L 328.878906 136.601562 C 328.878906 132.378906 325.453125 128.953125 321.230469 128.953125 L 158.769531 128.953125 C 154.546875 128.953125 151.121094 132.378906 151.121094 136.601562 L 151.121094 241.21875 C 151.121094 245.441406 154.546875 248.867188 158.769531 248.867188 L 219.585938 248.867188 L 219.585938 269.945312 L 193.296875 269.945312 C 185.78125 269.945312 179.6875 276.039062 179.6875 283.550781 C 179.6875 287.507812 181.382812 291.054688 184.078125 293.539062 L 165.792969 293.539062 C 165.738281 293.394531 165.695312 293.242188 165.644531 293.09375 C 164.609375 290.101562 164.039062 286.894531 164.039062 283.554688 C 164.039062 276.292969 166.695312 269.640625 171.089844 264.519531 L 158.769531 264.519531 C 155.855469 264.519531 153.066406 263.976562 150.492188 262.996094 L 150.492188 293.09375 C 150.492188 293.09375 119.90625 293.253906 118.324219 293.542969 L 117.914062 293.542969 L 117.914062 293.617188 C 105.5 296.078125 96.117188 307.046875 96.117188 320.171875 L 96.117188 466.390625 C 96.117188 473.90625 102.210938 480 109.726562 480 C 117.242188 480 123.332031 473.90625 123.332031 466.390625 L 123.332031 346.40625 L 356.667969 346.40625 L 356.667969 466.390625 C 356.667969 473.90625 362.761719 480 370.277344 480 C 377.792969 480 383.882812 473.90625 383.882812 466.390625 L 383.882812 320.167969 C 383.882812 307.183594 374.691406 296.308594 362.476562 293.695312 Z M 240 213.496094 C 227.78125 213.496094 217.875 203.59375 217.875 191.375 C 217.875 179.15625 227.78125 169.25 240 169.25 C 252.214844 169.25 262.121094 179.15625 262.121094 191.375 C 262.121094 203.59375 252.214844 213.496094 240 213.496094 Z M 240 213.496094 "/>
<path style=" stroke:none;fill-rule:nonzero;fill:rgb(0%,0%,0%);fill-opacity:1;" d="M 278.90625 39.042969 C 278.90625 60.605469 261.425781 78.085938 239.863281 78.085938 C 218.300781 78.085938 200.820312 60.605469 200.820312 39.042969 C 200.820312 17.480469 218.300781 0 239.863281 0 C 261.425781 0 278.90625 17.480469 278.90625 39.042969 Z M 278.90625 39.042969 "/>
</g>
</svg>
